# xmcd
#
# Track frame offsets: 
#        150
#        16855
#        29407
#        48731
#        66158
#        79495
#        100624
#        115613
#        128097
#        143370
#        160437
#        174402
#        190081
#        210404
#        225894
#        237217
#        250980
#        266209
#        285312
#
# Disc length: 4057 seconds
#
# Revision: 0
# Processed by: cddbd v1.5.2PL0 Copyright (c) Steve Scherf et al.
# Submitted via: ExactAudioCopy v1.0b1
#
DISCID=f80fd713
DTITLE=Various Artist - East Nashville, Vol. 3
DYEAR=2009
DGENRE=Americana
TTITLE0=Neon Tombstone
TTITLE1=Way Down Below
TTITLE2=Tranquility Base
TTITLE3=Gospel Song
TTITLE4=Broken Promise Land
TTITLE5=Black Dog
TTITLE6=I Wish It Was Friday
TTITLE7=On the Wire
TTITLE8=Renaissance Rodeo
TTITLE9=Getting Thru
TTITLE10=Love You Like the Earth
TTITLE11=Reputation
TTITLE12=Tiny Drops of Rain
TTITLE13=Amanda
TTITLE14=No Easy Way
TTITLE15=I Miss You Already
TTITLE16=Midnight Bruiser
TTITLE17=Chano Pozo's Shoes
TTITLE18=Taterbug Rag
EXTD=
EXTT0=
EXTT1=
EXTT2=
EXTT3=
EXTT4=
EXTT5=
EXTT6=
EXTT7=
EXTT8=
EXTT9=
EXTT10=
EXTT11=
EXTT12=
EXTT13=
EXTT14=
EXTT15=
EXTT16=
EXTT17=
EXTT18=
PLAYORDER=
